%TF.GenerationSoftware,KiCad,Pcbnew,10.0.1*%
%TF.CreationDate,2026-05-13T21:49:05+05:30*%
%TF.ProjectId,kiki-player,6b696b69-2d70-46c6-9179-65722e6b6963,rev?*%
%TF.SameCoordinates,Original*%
%TF.FileFunction,Legend,Top*%
%TF.FilePolarity,Positive*%
%FSLAX46Y46*%
G04 Gerber Fmt 4.6, Leading zero omitted, Abs format (unit mm)*
G04 Created by KiCad (PCBNEW 10.0.1) date 2026-05-13 21:49:05*
%MOMM*%
%LPD*%
G01*
G04 APERTURE LIST*
%ADD10C,0.150000*%
%ADD11C,0.120000*%
G04 APERTURE END LIST*
D10*
X63142142Y-143154580D02*
X63094523Y-143202200D01*
X63094523Y-143202200D02*
X62951666Y-143249819D01*
X62951666Y-143249819D02*
X62856428Y-143249819D01*
X62856428Y-143249819D02*
X62713571Y-143202200D01*
X62713571Y-143202200D02*
X62618333Y-143106961D01*
X62618333Y-143106961D02*
X62570714Y-143011723D01*
X62570714Y-143011723D02*
X62523095Y-142821247D01*
X62523095Y-142821247D02*
X62523095Y-142678390D01*
X62523095Y-142678390D02*
X62570714Y-142487914D01*
X62570714Y-142487914D02*
X62618333Y-142392676D01*
X62618333Y-142392676D02*
X62713571Y-142297438D01*
X62713571Y-142297438D02*
X62856428Y-142249819D01*
X62856428Y-142249819D02*
X62951666Y-142249819D01*
X62951666Y-142249819D02*
X63094523Y-142297438D01*
X63094523Y-142297438D02*
X63142142Y-142345057D01*
X63523095Y-142345057D02*
X63570714Y-142297438D01*
X63570714Y-142297438D02*
X63665952Y-142249819D01*
X63665952Y-142249819D02*
X63904047Y-142249819D01*
X63904047Y-142249819D02*
X63999285Y-142297438D01*
X63999285Y-142297438D02*
X64046904Y-142345057D01*
X64046904Y-142345057D02*
X64094523Y-142440295D01*
X64094523Y-142440295D02*
X64094523Y-142535533D01*
X64094523Y-142535533D02*
X64046904Y-142678390D01*
X64046904Y-142678390D02*
X63475476Y-143249819D01*
X63475476Y-143249819D02*
X64094523Y-143249819D01*
X64475476Y-142345057D02*
X64523095Y-142297438D01*
X64523095Y-142297438D02*
X64618333Y-142249819D01*
X64618333Y-142249819D02*
X64856428Y-142249819D01*
X64856428Y-142249819D02*
X64951666Y-142297438D01*
X64951666Y-142297438D02*
X64999285Y-142345057D01*
X64999285Y-142345057D02*
X65046904Y-142440295D01*
X65046904Y-142440295D02*
X65046904Y-142535533D01*
X65046904Y-142535533D02*
X64999285Y-142678390D01*
X64999285Y-142678390D02*
X64427857Y-143249819D01*
X64427857Y-143249819D02*
X65046904Y-143249819D01*
X76416666Y-100854819D02*
X76416666Y-101569104D01*
X76416666Y-101569104D02*
X76369047Y-101711961D01*
X76369047Y-101711961D02*
X76273809Y-101807200D01*
X76273809Y-101807200D02*
X76130952Y-101854819D01*
X76130952Y-101854819D02*
X76035714Y-101854819D01*
X76845238Y-100950057D02*
X76892857Y-100902438D01*
X76892857Y-100902438D02*
X76988095Y-100854819D01*
X76988095Y-100854819D02*
X77226190Y-100854819D01*
X77226190Y-100854819D02*
X77321428Y-100902438D01*
X77321428Y-100902438D02*
X77369047Y-100950057D01*
X77369047Y-100950057D02*
X77416666Y-101045295D01*
X77416666Y-101045295D02*
X77416666Y-101140533D01*
X77416666Y-101140533D02*
X77369047Y-101283390D01*
X77369047Y-101283390D02*
X76797619Y-101854819D01*
X76797619Y-101854819D02*
X77416666Y-101854819D01*
X78048809Y-115713628D02*
X78048809Y-116189819D01*
X77715476Y-115189819D02*
X78048809Y-115713628D01*
X78048809Y-115713628D02*
X78382142Y-115189819D01*
X79239285Y-116189819D02*
X78667857Y-116189819D01*
X78953571Y-116189819D02*
X78953571Y-115189819D01*
X78953571Y-115189819D02*
X78858333Y-115332676D01*
X78858333Y-115332676D02*
X78763095Y-115427914D01*
X78763095Y-115427914D02*
X78667857Y-115475533D01*
X58078095Y-56824819D02*
X58078095Y-57634342D01*
X58078095Y-57634342D02*
X58125714Y-57729580D01*
X58125714Y-57729580D02*
X58173333Y-57777200D01*
X58173333Y-57777200D02*
X58268571Y-57824819D01*
X58268571Y-57824819D02*
X58459047Y-57824819D01*
X58459047Y-57824819D02*
X58554285Y-57777200D01*
X58554285Y-57777200D02*
X58601904Y-57729580D01*
X58601904Y-57729580D02*
X58649523Y-57634342D01*
X58649523Y-57634342D02*
X58649523Y-56824819D01*
X59554285Y-57158152D02*
X59554285Y-57824819D01*
X59316190Y-56777200D02*
X59078095Y-57491485D01*
X59078095Y-57491485D02*
X59697142Y-57491485D01*
X71138095Y-136904819D02*
X71138095Y-137714342D01*
X71138095Y-137714342D02*
X71185714Y-137809580D01*
X71185714Y-137809580D02*
X71233333Y-137857200D01*
X71233333Y-137857200D02*
X71328571Y-137904819D01*
X71328571Y-137904819D02*
X71519047Y-137904819D01*
X71519047Y-137904819D02*
X71614285Y-137857200D01*
X71614285Y-137857200D02*
X71661904Y-137809580D01*
X71661904Y-137809580D02*
X71709523Y-137714342D01*
X71709523Y-137714342D02*
X71709523Y-136904819D01*
X72328571Y-137333390D02*
X72233333Y-137285771D01*
X72233333Y-137285771D02*
X72185714Y-137238152D01*
X72185714Y-137238152D02*
X72138095Y-137142914D01*
X72138095Y-137142914D02*
X72138095Y-137095295D01*
X72138095Y-137095295D02*
X72185714Y-137000057D01*
X72185714Y-137000057D02*
X72233333Y-136952438D01*
X72233333Y-136952438D02*
X72328571Y-136904819D01*
X72328571Y-136904819D02*
X72519047Y-136904819D01*
X72519047Y-136904819D02*
X72614285Y-136952438D01*
X72614285Y-136952438D02*
X72661904Y-137000057D01*
X72661904Y-137000057D02*
X72709523Y-137095295D01*
X72709523Y-137095295D02*
X72709523Y-137142914D01*
X72709523Y-137142914D02*
X72661904Y-137238152D01*
X72661904Y-137238152D02*
X72614285Y-137285771D01*
X72614285Y-137285771D02*
X72519047Y-137333390D01*
X72519047Y-137333390D02*
X72328571Y-137333390D01*
X72328571Y-137333390D02*
X72233333Y-137381009D01*
X72233333Y-137381009D02*
X72185714Y-137428628D01*
X72185714Y-137428628D02*
X72138095Y-137523866D01*
X72138095Y-137523866D02*
X72138095Y-137714342D01*
X72138095Y-137714342D02*
X72185714Y-137809580D01*
X72185714Y-137809580D02*
X72233333Y-137857200D01*
X72233333Y-137857200D02*
X72328571Y-137904819D01*
X72328571Y-137904819D02*
X72519047Y-137904819D01*
X72519047Y-137904819D02*
X72614285Y-137857200D01*
X72614285Y-137857200D02*
X72661904Y-137809580D01*
X72661904Y-137809580D02*
X72709523Y-137714342D01*
X72709523Y-137714342D02*
X72709523Y-137523866D01*
X72709523Y-137523866D02*
X72661904Y-137428628D01*
X72661904Y-137428628D02*
X72614285Y-137381009D01*
X72614285Y-137381009D02*
X72519047Y-137333390D01*
X63142142Y-140644580D02*
X63094523Y-140692200D01*
X63094523Y-140692200D02*
X62951666Y-140739819D01*
X62951666Y-140739819D02*
X62856428Y-140739819D01*
X62856428Y-140739819D02*
X62713571Y-140692200D01*
X62713571Y-140692200D02*
X62618333Y-140596961D01*
X62618333Y-140596961D02*
X62570714Y-140501723D01*
X62570714Y-140501723D02*
X62523095Y-140311247D01*
X62523095Y-140311247D02*
X62523095Y-140168390D01*
X62523095Y-140168390D02*
X62570714Y-139977914D01*
X62570714Y-139977914D02*
X62618333Y-139882676D01*
X62618333Y-139882676D02*
X62713571Y-139787438D01*
X62713571Y-139787438D02*
X62856428Y-139739819D01*
X62856428Y-139739819D02*
X62951666Y-139739819D01*
X62951666Y-139739819D02*
X63094523Y-139787438D01*
X63094523Y-139787438D02*
X63142142Y-139835057D01*
X63523095Y-139835057D02*
X63570714Y-139787438D01*
X63570714Y-139787438D02*
X63665952Y-139739819D01*
X63665952Y-139739819D02*
X63904047Y-139739819D01*
X63904047Y-139739819D02*
X63999285Y-139787438D01*
X63999285Y-139787438D02*
X64046904Y-139835057D01*
X64046904Y-139835057D02*
X64094523Y-139930295D01*
X64094523Y-139930295D02*
X64094523Y-140025533D01*
X64094523Y-140025533D02*
X64046904Y-140168390D01*
X64046904Y-140168390D02*
X63475476Y-140739819D01*
X63475476Y-140739819D02*
X64094523Y-140739819D01*
X65046904Y-140739819D02*
X64475476Y-140739819D01*
X64761190Y-140739819D02*
X64761190Y-139739819D01*
X64761190Y-139739819D02*
X64665952Y-139882676D01*
X64665952Y-139882676D02*
X64570714Y-139977914D01*
X64570714Y-139977914D02*
X64475476Y-140025533D01*
X63142142Y-145759819D02*
X62808809Y-145283628D01*
X62570714Y-145759819D02*
X62570714Y-144759819D01*
X62570714Y-144759819D02*
X62951666Y-144759819D01*
X62951666Y-144759819D02*
X63046904Y-144807438D01*
X63046904Y-144807438D02*
X63094523Y-144855057D01*
X63094523Y-144855057D02*
X63142142Y-144950295D01*
X63142142Y-144950295D02*
X63142142Y-145093152D01*
X63142142Y-145093152D02*
X63094523Y-145188390D01*
X63094523Y-145188390D02*
X63046904Y-145236009D01*
X63046904Y-145236009D02*
X62951666Y-145283628D01*
X62951666Y-145283628D02*
X62570714Y-145283628D01*
X64094523Y-145759819D02*
X63523095Y-145759819D01*
X63808809Y-145759819D02*
X63808809Y-144759819D01*
X63808809Y-144759819D02*
X63713571Y-144902676D01*
X63713571Y-144902676D02*
X63618333Y-144997914D01*
X63618333Y-144997914D02*
X63523095Y-145045533D01*
X65046904Y-145759819D02*
X64475476Y-145759819D01*
X64761190Y-145759819D02*
X64761190Y-144759819D01*
X64761190Y-144759819D02*
X64665952Y-144902676D01*
X64665952Y-144902676D02*
X64570714Y-144997914D01*
X64570714Y-144997914D02*
X64475476Y-145045533D01*
X76731905Y-146389819D02*
X76731905Y-145389819D01*
X76731905Y-145389819D02*
X76970000Y-145389819D01*
X76970000Y-145389819D02*
X77112857Y-145437438D01*
X77112857Y-145437438D02*
X77208095Y-145532676D01*
X77208095Y-145532676D02*
X77255714Y-145627914D01*
X77255714Y-145627914D02*
X77303333Y-145818390D01*
X77303333Y-145818390D02*
X77303333Y-145961247D01*
X77303333Y-145961247D02*
X77255714Y-146151723D01*
X77255714Y-146151723D02*
X77208095Y-146246961D01*
X77208095Y-146246961D02*
X77112857Y-146342200D01*
X77112857Y-146342200D02*
X76970000Y-146389819D01*
X76970000Y-146389819D02*
X76731905Y-146389819D01*
X77636667Y-145389819D02*
X78255714Y-145389819D01*
X78255714Y-145389819D02*
X77922381Y-145770771D01*
X77922381Y-145770771D02*
X78065238Y-145770771D01*
X78065238Y-145770771D02*
X78160476Y-145818390D01*
X78160476Y-145818390D02*
X78208095Y-145866009D01*
X78208095Y-145866009D02*
X78255714Y-145961247D01*
X78255714Y-145961247D02*
X78255714Y-146199342D01*
X78255714Y-146199342D02*
X78208095Y-146294580D01*
X78208095Y-146294580D02*
X78160476Y-146342200D01*
X78160476Y-146342200D02*
X78065238Y-146389819D01*
X78065238Y-146389819D02*
X77779524Y-146389819D01*
X77779524Y-146389819D02*
X77684286Y-146342200D01*
X77684286Y-146342200D02*
X77636667Y-146294580D01*
X69233333Y-120494819D02*
X68900000Y-120018628D01*
X68661905Y-120494819D02*
X68661905Y-119494819D01*
X68661905Y-119494819D02*
X69042857Y-119494819D01*
X69042857Y-119494819D02*
X69138095Y-119542438D01*
X69138095Y-119542438D02*
X69185714Y-119590057D01*
X69185714Y-119590057D02*
X69233333Y-119685295D01*
X69233333Y-119685295D02*
X69233333Y-119828152D01*
X69233333Y-119828152D02*
X69185714Y-119923390D01*
X69185714Y-119923390D02*
X69138095Y-119971009D01*
X69138095Y-119971009D02*
X69042857Y-120018628D01*
X69042857Y-120018628D02*
X68661905Y-120018628D01*
X69566667Y-119494819D02*
X70185714Y-119494819D01*
X70185714Y-119494819D02*
X69852381Y-119875771D01*
X69852381Y-119875771D02*
X69995238Y-119875771D01*
X69995238Y-119875771D02*
X70090476Y-119923390D01*
X70090476Y-119923390D02*
X70138095Y-119971009D01*
X70138095Y-119971009D02*
X70185714Y-120066247D01*
X70185714Y-120066247D02*
X70185714Y-120304342D01*
X70185714Y-120304342D02*
X70138095Y-120399580D01*
X70138095Y-120399580D02*
X70090476Y-120447200D01*
X70090476Y-120447200D02*
X69995238Y-120494819D01*
X69995238Y-120494819D02*
X69709524Y-120494819D01*
X69709524Y-120494819D02*
X69614286Y-120447200D01*
X69614286Y-120447200D02*
X69566667Y-120399580D01*
X95008333Y-135239580D02*
X94960714Y-135287200D01*
X94960714Y-135287200D02*
X94817857Y-135334819D01*
X94817857Y-135334819D02*
X94722619Y-135334819D01*
X94722619Y-135334819D02*
X94579762Y-135287200D01*
X94579762Y-135287200D02*
X94484524Y-135191961D01*
X94484524Y-135191961D02*
X94436905Y-135096723D01*
X94436905Y-135096723D02*
X94389286Y-134906247D01*
X94389286Y-134906247D02*
X94389286Y-134763390D01*
X94389286Y-134763390D02*
X94436905Y-134572914D01*
X94436905Y-134572914D02*
X94484524Y-134477676D01*
X94484524Y-134477676D02*
X94579762Y-134382438D01*
X94579762Y-134382438D02*
X94722619Y-134334819D01*
X94722619Y-134334819D02*
X94817857Y-134334819D01*
X94817857Y-134334819D02*
X94960714Y-134382438D01*
X94960714Y-134382438D02*
X95008333Y-134430057D01*
X95484524Y-135334819D02*
X95675000Y-135334819D01*
X95675000Y-135334819D02*
X95770238Y-135287200D01*
X95770238Y-135287200D02*
X95817857Y-135239580D01*
X95817857Y-135239580D02*
X95913095Y-135096723D01*
X95913095Y-135096723D02*
X95960714Y-134906247D01*
X95960714Y-134906247D02*
X95960714Y-134525295D01*
X95960714Y-134525295D02*
X95913095Y-134430057D01*
X95913095Y-134430057D02*
X95865476Y-134382438D01*
X95865476Y-134382438D02*
X95770238Y-134334819D01*
X95770238Y-134334819D02*
X95579762Y-134334819D01*
X95579762Y-134334819D02*
X95484524Y-134382438D01*
X95484524Y-134382438D02*
X95436905Y-134430057D01*
X95436905Y-134430057D02*
X95389286Y-134525295D01*
X95389286Y-134525295D02*
X95389286Y-134763390D01*
X95389286Y-134763390D02*
X95436905Y-134858628D01*
X95436905Y-134858628D02*
X95484524Y-134906247D01*
X95484524Y-134906247D02*
X95579762Y-134953866D01*
X95579762Y-134953866D02*
X95770238Y-134953866D01*
X95770238Y-134953866D02*
X95865476Y-134906247D01*
X95865476Y-134906247D02*
X95913095Y-134858628D01*
X95913095Y-134858628D02*
X95960714Y-134763390D01*
X109488095Y-108754819D02*
X109488095Y-109564342D01*
X109488095Y-109564342D02*
X109535714Y-109659580D01*
X109535714Y-109659580D02*
X109583333Y-109707200D01*
X109583333Y-109707200D02*
X109678571Y-109754819D01*
X109678571Y-109754819D02*
X109869047Y-109754819D01*
X109869047Y-109754819D02*
X109964285Y-109707200D01*
X109964285Y-109707200D02*
X110011904Y-109659580D01*
X110011904Y-109659580D02*
X110059523Y-109564342D01*
X110059523Y-109564342D02*
X110059523Y-108754819D01*
X111011904Y-108754819D02*
X110535714Y-108754819D01*
X110535714Y-108754819D02*
X110488095Y-109231009D01*
X110488095Y-109231009D02*
X110535714Y-109183390D01*
X110535714Y-109183390D02*
X110630952Y-109135771D01*
X110630952Y-109135771D02*
X110869047Y-109135771D01*
X110869047Y-109135771D02*
X110964285Y-109183390D01*
X110964285Y-109183390D02*
X111011904Y-109231009D01*
X111011904Y-109231009D02*
X111059523Y-109326247D01*
X111059523Y-109326247D02*
X111059523Y-109564342D01*
X111059523Y-109564342D02*
X111011904Y-109659580D01*
X111011904Y-109659580D02*
X110964285Y-109707200D01*
X110964285Y-109707200D02*
X110869047Y-109754819D01*
X110869047Y-109754819D02*
X110630952Y-109754819D01*
X110630952Y-109754819D02*
X110535714Y-109707200D01*
X110535714Y-109707200D02*
X110488095Y-109659580D01*
X96611667Y-110543200D02*
X96754524Y-110590819D01*
X96754524Y-110590819D02*
X96992619Y-110590819D01*
X96992619Y-110590819D02*
X97087857Y-110543200D01*
X97087857Y-110543200D02*
X97135476Y-110495580D01*
X97135476Y-110495580D02*
X97183095Y-110400342D01*
X97183095Y-110400342D02*
X97183095Y-110305104D01*
X97183095Y-110305104D02*
X97135476Y-110209866D01*
X97135476Y-110209866D02*
X97087857Y-110162247D01*
X97087857Y-110162247D02*
X96992619Y-110114628D01*
X96992619Y-110114628D02*
X96802143Y-110067009D01*
X96802143Y-110067009D02*
X96706905Y-110019390D01*
X96706905Y-110019390D02*
X96659286Y-109971771D01*
X96659286Y-109971771D02*
X96611667Y-109876533D01*
X96611667Y-109876533D02*
X96611667Y-109781295D01*
X96611667Y-109781295D02*
X96659286Y-109686057D01*
X96659286Y-109686057D02*
X96706905Y-109638438D01*
X96706905Y-109638438D02*
X96802143Y-109590819D01*
X96802143Y-109590819D02*
X97040238Y-109590819D01*
X97040238Y-109590819D02*
X97183095Y-109638438D01*
X97516429Y-109590819D02*
X97754524Y-110590819D01*
X97754524Y-110590819D02*
X97945000Y-109876533D01*
X97945000Y-109876533D02*
X98135476Y-110590819D01*
X98135476Y-110590819D02*
X98373572Y-109590819D01*
X99183095Y-109924152D02*
X99183095Y-110590819D01*
X98945000Y-109543200D02*
X98706905Y-110257485D01*
X98706905Y-110257485D02*
X99325952Y-110257485D01*
X96611666Y-110590819D02*
X96278333Y-110114628D01*
X96040238Y-110590819D02*
X96040238Y-109590819D01*
X96040238Y-109590819D02*
X96421190Y-109590819D01*
X96421190Y-109590819D02*
X96516428Y-109638438D01*
X96516428Y-109638438D02*
X96564047Y-109686057D01*
X96564047Y-109686057D02*
X96611666Y-109781295D01*
X96611666Y-109781295D02*
X96611666Y-109924152D01*
X96611666Y-109924152D02*
X96564047Y-110019390D01*
X96564047Y-110019390D02*
X96516428Y-110067009D01*
X96516428Y-110067009D02*
X96421190Y-110114628D01*
X96421190Y-110114628D02*
X96040238Y-110114628D01*
X97040238Y-110067009D02*
X97373571Y-110067009D01*
X97516428Y-110590819D02*
X97040238Y-110590819D01*
X97040238Y-110590819D02*
X97040238Y-109590819D01*
X97040238Y-109590819D02*
X97516428Y-109590819D01*
X98278333Y-110067009D02*
X97945000Y-110067009D01*
X97945000Y-110590819D02*
X97945000Y-109590819D01*
X97945000Y-109590819D02*
X98421190Y-109590819D01*
X98945000Y-109590819D02*
X98945000Y-109828914D01*
X98706905Y-109733676D02*
X98945000Y-109828914D01*
X98945000Y-109828914D02*
X99183095Y-109733676D01*
X98802143Y-110019390D02*
X98945000Y-109828914D01*
X98945000Y-109828914D02*
X99087857Y-110019390D01*
X99706905Y-109590819D02*
X99706905Y-109828914D01*
X99468810Y-109733676D02*
X99706905Y-109828914D01*
X99706905Y-109828914D02*
X99945000Y-109733676D01*
X99564048Y-110019390D02*
X99706905Y-109828914D01*
X99706905Y-109828914D02*
X99849762Y-110019390D01*
X95008333Y-137844819D02*
X94675000Y-137368628D01*
X94436905Y-137844819D02*
X94436905Y-136844819D01*
X94436905Y-136844819D02*
X94817857Y-136844819D01*
X94817857Y-136844819D02*
X94913095Y-136892438D01*
X94913095Y-136892438D02*
X94960714Y-136940057D01*
X94960714Y-136940057D02*
X95008333Y-137035295D01*
X95008333Y-137035295D02*
X95008333Y-137178152D01*
X95008333Y-137178152D02*
X94960714Y-137273390D01*
X94960714Y-137273390D02*
X94913095Y-137321009D01*
X94913095Y-137321009D02*
X94817857Y-137368628D01*
X94817857Y-137368628D02*
X94436905Y-137368628D01*
X95865476Y-136844819D02*
X95675000Y-136844819D01*
X95675000Y-136844819D02*
X95579762Y-136892438D01*
X95579762Y-136892438D02*
X95532143Y-136940057D01*
X95532143Y-136940057D02*
X95436905Y-137082914D01*
X95436905Y-137082914D02*
X95389286Y-137273390D01*
X95389286Y-137273390D02*
X95389286Y-137654342D01*
X95389286Y-137654342D02*
X95436905Y-137749580D01*
X95436905Y-137749580D02*
X95484524Y-137797200D01*
X95484524Y-137797200D02*
X95579762Y-137844819D01*
X95579762Y-137844819D02*
X95770238Y-137844819D01*
X95770238Y-137844819D02*
X95865476Y-137797200D01*
X95865476Y-137797200D02*
X95913095Y-137749580D01*
X95913095Y-137749580D02*
X95960714Y-137654342D01*
X95960714Y-137654342D02*
X95960714Y-137416247D01*
X95960714Y-137416247D02*
X95913095Y-137321009D01*
X95913095Y-137321009D02*
X95865476Y-137273390D01*
X95865476Y-137273390D02*
X95770238Y-137225771D01*
X95770238Y-137225771D02*
X95579762Y-137225771D01*
X95579762Y-137225771D02*
X95484524Y-137273390D01*
X95484524Y-137273390D02*
X95436905Y-137321009D01*
X95436905Y-137321009D02*
X95389286Y-137416247D01*
X91666666Y-153309819D02*
X91666666Y-154024104D01*
X91666666Y-154024104D02*
X91619047Y-154166961D01*
X91619047Y-154166961D02*
X91523809Y-154262200D01*
X91523809Y-154262200D02*
X91380952Y-154309819D01*
X91380952Y-154309819D02*
X91285714Y-154309819D01*
X92571428Y-153309819D02*
X92380952Y-153309819D01*
X92380952Y-153309819D02*
X92285714Y-153357438D01*
X92285714Y-153357438D02*
X92238095Y-153405057D01*
X92238095Y-153405057D02*
X92142857Y-153547914D01*
X92142857Y-153547914D02*
X92095238Y-153738390D01*
X92095238Y-153738390D02*
X92095238Y-154119342D01*
X92095238Y-154119342D02*
X92142857Y-154214580D01*
X92142857Y-154214580D02*
X92190476Y-154262200D01*
X92190476Y-154262200D02*
X92285714Y-154309819D01*
X92285714Y-154309819D02*
X92476190Y-154309819D01*
X92476190Y-154309819D02*
X92571428Y-154262200D01*
X92571428Y-154262200D02*
X92619047Y-154214580D01*
X92619047Y-154214580D02*
X92666666Y-154119342D01*
X92666666Y-154119342D02*
X92666666Y-153881247D01*
X92666666Y-153881247D02*
X92619047Y-153786009D01*
X92619047Y-153786009D02*
X92571428Y-153738390D01*
X92571428Y-153738390D02*
X92476190Y-153690771D01*
X92476190Y-153690771D02*
X92285714Y-153690771D01*
X92285714Y-153690771D02*
X92190476Y-153738390D01*
X92190476Y-153738390D02*
X92142857Y-153786009D01*
X92142857Y-153786009D02*
X92095238Y-153881247D01*
X63142142Y-138134580D02*
X63094523Y-138182200D01*
X63094523Y-138182200D02*
X62951666Y-138229819D01*
X62951666Y-138229819D02*
X62856428Y-138229819D01*
X62856428Y-138229819D02*
X62713571Y-138182200D01*
X62713571Y-138182200D02*
X62618333Y-138086961D01*
X62618333Y-138086961D02*
X62570714Y-137991723D01*
X62570714Y-137991723D02*
X62523095Y-137801247D01*
X62523095Y-137801247D02*
X62523095Y-137658390D01*
X62523095Y-137658390D02*
X62570714Y-137467914D01*
X62570714Y-137467914D02*
X62618333Y-137372676D01*
X62618333Y-137372676D02*
X62713571Y-137277438D01*
X62713571Y-137277438D02*
X62856428Y-137229819D01*
X62856428Y-137229819D02*
X62951666Y-137229819D01*
X62951666Y-137229819D02*
X63094523Y-137277438D01*
X63094523Y-137277438D02*
X63142142Y-137325057D01*
X63523095Y-137325057D02*
X63570714Y-137277438D01*
X63570714Y-137277438D02*
X63665952Y-137229819D01*
X63665952Y-137229819D02*
X63904047Y-137229819D01*
X63904047Y-137229819D02*
X63999285Y-137277438D01*
X63999285Y-137277438D02*
X64046904Y-137325057D01*
X64046904Y-137325057D02*
X64094523Y-137420295D01*
X64094523Y-137420295D02*
X64094523Y-137515533D01*
X64094523Y-137515533D02*
X64046904Y-137658390D01*
X64046904Y-137658390D02*
X63475476Y-138229819D01*
X63475476Y-138229819D02*
X64094523Y-138229819D01*
X64713571Y-137229819D02*
X64808809Y-137229819D01*
X64808809Y-137229819D02*
X64904047Y-137277438D01*
X64904047Y-137277438D02*
X64951666Y-137325057D01*
X64951666Y-137325057D02*
X64999285Y-137420295D01*
X64999285Y-137420295D02*
X65046904Y-137610771D01*
X65046904Y-137610771D02*
X65046904Y-137848866D01*
X65046904Y-137848866D02*
X64999285Y-138039342D01*
X64999285Y-138039342D02*
X64951666Y-138134580D01*
X64951666Y-138134580D02*
X64904047Y-138182200D01*
X64904047Y-138182200D02*
X64808809Y-138229819D01*
X64808809Y-138229819D02*
X64713571Y-138229819D01*
X64713571Y-138229819D02*
X64618333Y-138182200D01*
X64618333Y-138182200D02*
X64570714Y-138134580D01*
X64570714Y-138134580D02*
X64523095Y-138039342D01*
X64523095Y-138039342D02*
X64475476Y-137848866D01*
X64475476Y-137848866D02*
X64475476Y-137610771D01*
X64475476Y-137610771D02*
X64523095Y-137420295D01*
X64523095Y-137420295D02*
X64570714Y-137325057D01*
X64570714Y-137325057D02*
X64618333Y-137277438D01*
X64618333Y-137277438D02*
X64713571Y-137229819D01*
X96611667Y-127623200D02*
X96754524Y-127670819D01*
X96754524Y-127670819D02*
X96992619Y-127670819D01*
X96992619Y-127670819D02*
X97087857Y-127623200D01*
X97087857Y-127623200D02*
X97135476Y-127575580D01*
X97135476Y-127575580D02*
X97183095Y-127480342D01*
X97183095Y-127480342D02*
X97183095Y-127385104D01*
X97183095Y-127385104D02*
X97135476Y-127289866D01*
X97135476Y-127289866D02*
X97087857Y-127242247D01*
X97087857Y-127242247D02*
X96992619Y-127194628D01*
X96992619Y-127194628D02*
X96802143Y-127147009D01*
X96802143Y-127147009D02*
X96706905Y-127099390D01*
X96706905Y-127099390D02*
X96659286Y-127051771D01*
X96659286Y-127051771D02*
X96611667Y-126956533D01*
X96611667Y-126956533D02*
X96611667Y-126861295D01*
X96611667Y-126861295D02*
X96659286Y-126766057D01*
X96659286Y-126766057D02*
X96706905Y-126718438D01*
X96706905Y-126718438D02*
X96802143Y-126670819D01*
X96802143Y-126670819D02*
X97040238Y-126670819D01*
X97040238Y-126670819D02*
X97183095Y-126718438D01*
X97516429Y-126670819D02*
X97754524Y-127670819D01*
X97754524Y-127670819D02*
X97945000Y-126956533D01*
X97945000Y-126956533D02*
X98135476Y-127670819D01*
X98135476Y-127670819D02*
X98373572Y-126670819D01*
X98659286Y-126670819D02*
X99278333Y-126670819D01*
X99278333Y-126670819D02*
X98945000Y-127051771D01*
X98945000Y-127051771D02*
X99087857Y-127051771D01*
X99087857Y-127051771D02*
X99183095Y-127099390D01*
X99183095Y-127099390D02*
X99230714Y-127147009D01*
X99230714Y-127147009D02*
X99278333Y-127242247D01*
X99278333Y-127242247D02*
X99278333Y-127480342D01*
X99278333Y-127480342D02*
X99230714Y-127575580D01*
X99230714Y-127575580D02*
X99183095Y-127623200D01*
X99183095Y-127623200D02*
X99087857Y-127670819D01*
X99087857Y-127670819D02*
X98802143Y-127670819D01*
X98802143Y-127670819D02*
X98706905Y-127623200D01*
X98706905Y-127623200D02*
X98659286Y-127575580D01*
X96611666Y-127670819D02*
X96278333Y-127194628D01*
X96040238Y-127670819D02*
X96040238Y-126670819D01*
X96040238Y-126670819D02*
X96421190Y-126670819D01*
X96421190Y-126670819D02*
X96516428Y-126718438D01*
X96516428Y-126718438D02*
X96564047Y-126766057D01*
X96564047Y-126766057D02*
X96611666Y-126861295D01*
X96611666Y-126861295D02*
X96611666Y-127004152D01*
X96611666Y-127004152D02*
X96564047Y-127099390D01*
X96564047Y-127099390D02*
X96516428Y-127147009D01*
X96516428Y-127147009D02*
X96421190Y-127194628D01*
X96421190Y-127194628D02*
X96040238Y-127194628D01*
X97040238Y-127147009D02*
X97373571Y-127147009D01*
X97516428Y-127670819D02*
X97040238Y-127670819D01*
X97040238Y-127670819D02*
X97040238Y-126670819D01*
X97040238Y-126670819D02*
X97516428Y-126670819D01*
X98278333Y-127147009D02*
X97945000Y-127147009D01*
X97945000Y-127670819D02*
X97945000Y-126670819D01*
X97945000Y-126670819D02*
X98421190Y-126670819D01*
X98945000Y-126670819D02*
X98945000Y-126908914D01*
X98706905Y-126813676D02*
X98945000Y-126908914D01*
X98945000Y-126908914D02*
X99183095Y-126813676D01*
X98802143Y-127099390D02*
X98945000Y-126908914D01*
X98945000Y-126908914D02*
X99087857Y-127099390D01*
X99706905Y-126670819D02*
X99706905Y-126908914D01*
X99468810Y-126813676D02*
X99706905Y-126908914D01*
X99706905Y-126908914D02*
X99945000Y-126813676D01*
X99564048Y-127099390D02*
X99706905Y-126908914D01*
X99706905Y-126908914D02*
X99849762Y-127099390D01*
X93548095Y-98214819D02*
X93548095Y-99024342D01*
X93548095Y-99024342D02*
X93595714Y-99119580D01*
X93595714Y-99119580D02*
X93643333Y-99167200D01*
X93643333Y-99167200D02*
X93738571Y-99214819D01*
X93738571Y-99214819D02*
X93929047Y-99214819D01*
X93929047Y-99214819D02*
X94024285Y-99167200D01*
X94024285Y-99167200D02*
X94071904Y-99119580D01*
X94071904Y-99119580D02*
X94119523Y-99024342D01*
X94119523Y-99024342D02*
X94119523Y-98214819D01*
X95024285Y-98214819D02*
X94833809Y-98214819D01*
X94833809Y-98214819D02*
X94738571Y-98262438D01*
X94738571Y-98262438D02*
X94690952Y-98310057D01*
X94690952Y-98310057D02*
X94595714Y-98452914D01*
X94595714Y-98452914D02*
X94548095Y-98643390D01*
X94548095Y-98643390D02*
X94548095Y-99024342D01*
X94548095Y-99024342D02*
X94595714Y-99119580D01*
X94595714Y-99119580D02*
X94643333Y-99167200D01*
X94643333Y-99167200D02*
X94738571Y-99214819D01*
X94738571Y-99214819D02*
X94929047Y-99214819D01*
X94929047Y-99214819D02*
X95024285Y-99167200D01*
X95024285Y-99167200D02*
X95071904Y-99119580D01*
X95071904Y-99119580D02*
X95119523Y-99024342D01*
X95119523Y-99024342D02*
X95119523Y-98786247D01*
X95119523Y-98786247D02*
X95071904Y-98691009D01*
X95071904Y-98691009D02*
X95024285Y-98643390D01*
X95024285Y-98643390D02*
X94929047Y-98595771D01*
X94929047Y-98595771D02*
X94738571Y-98595771D01*
X94738571Y-98595771D02*
X94643333Y-98643390D01*
X94643333Y-98643390D02*
X94595714Y-98691009D01*
X94595714Y-98691009D02*
X94548095Y-98786247D01*
X71781666Y-163474819D02*
X71781666Y-164189104D01*
X71781666Y-164189104D02*
X71734047Y-164331961D01*
X71734047Y-164331961D02*
X71638809Y-164427200D01*
X71638809Y-164427200D02*
X71495952Y-164474819D01*
X71495952Y-164474819D02*
X71400714Y-164474819D01*
X72734047Y-163474819D02*
X72257857Y-163474819D01*
X72257857Y-163474819D02*
X72210238Y-163951009D01*
X72210238Y-163951009D02*
X72257857Y-163903390D01*
X72257857Y-163903390D02*
X72353095Y-163855771D01*
X72353095Y-163855771D02*
X72591190Y-163855771D01*
X72591190Y-163855771D02*
X72686428Y-163903390D01*
X72686428Y-163903390D02*
X72734047Y-163951009D01*
X72734047Y-163951009D02*
X72781666Y-164046247D01*
X72781666Y-164046247D02*
X72781666Y-164284342D01*
X72781666Y-164284342D02*
X72734047Y-164379580D01*
X72734047Y-164379580D02*
X72686428Y-164427200D01*
X72686428Y-164427200D02*
X72591190Y-164474819D01*
X72591190Y-164474819D02*
X72353095Y-164474819D01*
X72353095Y-164474819D02*
X72257857Y-164427200D01*
X72257857Y-164427200D02*
X72210238Y-164379580D01*
X82301895Y-122584819D02*
X82301895Y-123394342D01*
X82301895Y-123394342D02*
X82349514Y-123489580D01*
X82349514Y-123489580D02*
X82397133Y-123537200D01*
X82397133Y-123537200D02*
X82492371Y-123584819D01*
X82492371Y-123584819D02*
X82682847Y-123584819D01*
X82682847Y-123584819D02*
X82778085Y-123537200D01*
X82778085Y-123537200D02*
X82825704Y-123489580D01*
X82825704Y-123489580D02*
X82873323Y-123394342D01*
X82873323Y-123394342D02*
X82873323Y-122584819D01*
X83254276Y-122584819D02*
X83920942Y-122584819D01*
X83920942Y-122584819D02*
X83492371Y-123584819D01*
X63142142Y-148269819D02*
X62808809Y-147793628D01*
X62570714Y-148269819D02*
X62570714Y-147269819D01*
X62570714Y-147269819D02*
X62951666Y-147269819D01*
X62951666Y-147269819D02*
X63046904Y-147317438D01*
X63046904Y-147317438D02*
X63094523Y-147365057D01*
X63094523Y-147365057D02*
X63142142Y-147460295D01*
X63142142Y-147460295D02*
X63142142Y-147603152D01*
X63142142Y-147603152D02*
X63094523Y-147698390D01*
X63094523Y-147698390D02*
X63046904Y-147746009D01*
X63046904Y-147746009D02*
X62951666Y-147793628D01*
X62951666Y-147793628D02*
X62570714Y-147793628D01*
X64094523Y-148269819D02*
X63523095Y-148269819D01*
X63808809Y-148269819D02*
X63808809Y-147269819D01*
X63808809Y-147269819D02*
X63713571Y-147412676D01*
X63713571Y-147412676D02*
X63618333Y-147507914D01*
X63618333Y-147507914D02*
X63523095Y-147555533D01*
X64475476Y-147365057D02*
X64523095Y-147317438D01*
X64523095Y-147317438D02*
X64618333Y-147269819D01*
X64618333Y-147269819D02*
X64856428Y-147269819D01*
X64856428Y-147269819D02*
X64951666Y-147317438D01*
X64951666Y-147317438D02*
X64999285Y-147365057D01*
X64999285Y-147365057D02*
X65046904Y-147460295D01*
X65046904Y-147460295D02*
X65046904Y-147555533D01*
X65046904Y-147555533D02*
X64999285Y-147698390D01*
X64999285Y-147698390D02*
X64427857Y-148269819D01*
X64427857Y-148269819D02*
X65046904Y-148269819D01*
X76731905Y-148979819D02*
X76731905Y-147979819D01*
X76731905Y-147979819D02*
X76970000Y-147979819D01*
X76970000Y-147979819D02*
X77112857Y-148027438D01*
X77112857Y-148027438D02*
X77208095Y-148122676D01*
X77208095Y-148122676D02*
X77255714Y-148217914D01*
X77255714Y-148217914D02*
X77303333Y-148408390D01*
X77303333Y-148408390D02*
X77303333Y-148551247D01*
X77303333Y-148551247D02*
X77255714Y-148741723D01*
X77255714Y-148741723D02*
X77208095Y-148836961D01*
X77208095Y-148836961D02*
X77112857Y-148932200D01*
X77112857Y-148932200D02*
X76970000Y-148979819D01*
X76970000Y-148979819D02*
X76731905Y-148979819D01*
X78160476Y-148313152D02*
X78160476Y-148979819D01*
X77922381Y-147932200D02*
X77684286Y-148646485D01*
X77684286Y-148646485D02*
X78303333Y-148646485D01*
X63142142Y-150779819D02*
X62808809Y-150303628D01*
X62570714Y-150779819D02*
X62570714Y-149779819D01*
X62570714Y-149779819D02*
X62951666Y-149779819D01*
X62951666Y-149779819D02*
X63046904Y-149827438D01*
X63046904Y-149827438D02*
X63094523Y-149875057D01*
X63094523Y-149875057D02*
X63142142Y-149970295D01*
X63142142Y-149970295D02*
X63142142Y-150113152D01*
X63142142Y-150113152D02*
X63094523Y-150208390D01*
X63094523Y-150208390D02*
X63046904Y-150256009D01*
X63046904Y-150256009D02*
X62951666Y-150303628D01*
X62951666Y-150303628D02*
X62570714Y-150303628D01*
X64094523Y-150779819D02*
X63523095Y-150779819D01*
X63808809Y-150779819D02*
X63808809Y-149779819D01*
X63808809Y-149779819D02*
X63713571Y-149922676D01*
X63713571Y-149922676D02*
X63618333Y-150017914D01*
X63618333Y-150017914D02*
X63523095Y-150065533D01*
X64427857Y-149779819D02*
X65046904Y-149779819D01*
X65046904Y-149779819D02*
X64713571Y-150160771D01*
X64713571Y-150160771D02*
X64856428Y-150160771D01*
X64856428Y-150160771D02*
X64951666Y-150208390D01*
X64951666Y-150208390D02*
X64999285Y-150256009D01*
X64999285Y-150256009D02*
X65046904Y-150351247D01*
X65046904Y-150351247D02*
X65046904Y-150589342D01*
X65046904Y-150589342D02*
X64999285Y-150684580D01*
X64999285Y-150684580D02*
X64951666Y-150732200D01*
X64951666Y-150732200D02*
X64856428Y-150779819D01*
X64856428Y-150779819D02*
X64570714Y-150779819D01*
X64570714Y-150779819D02*
X64475476Y-150732200D01*
X64475476Y-150732200D02*
X64427857Y-150684580D01*
X101607142Y-100074819D02*
X101130952Y-100074819D01*
X101130952Y-100074819D02*
X101130952Y-99074819D01*
X101892857Y-100027200D02*
X102035714Y-100074819D01*
X102035714Y-100074819D02*
X102273809Y-100074819D01*
X102273809Y-100074819D02*
X102369047Y-100027200D01*
X102369047Y-100027200D02*
X102416666Y-99979580D01*
X102416666Y-99979580D02*
X102464285Y-99884342D01*
X102464285Y-99884342D02*
X102464285Y-99789104D01*
X102464285Y-99789104D02*
X102416666Y-99693866D01*
X102416666Y-99693866D02*
X102369047Y-99646247D01*
X102369047Y-99646247D02*
X102273809Y-99598628D01*
X102273809Y-99598628D02*
X102083333Y-99551009D01*
X102083333Y-99551009D02*
X101988095Y-99503390D01*
X101988095Y-99503390D02*
X101940476Y-99455771D01*
X101940476Y-99455771D02*
X101892857Y-99360533D01*
X101892857Y-99360533D02*
X101892857Y-99265295D01*
X101892857Y-99265295D02*
X101940476Y-99170057D01*
X101940476Y-99170057D02*
X101988095Y-99122438D01*
X101988095Y-99122438D02*
X102083333Y-99074819D01*
X102083333Y-99074819D02*
X102321428Y-99074819D01*
X102321428Y-99074819D02*
X102464285Y-99122438D01*
X103416666Y-100074819D02*
X102845238Y-100074819D01*
X103130952Y-100074819D02*
X103130952Y-99074819D01*
X103130952Y-99074819D02*
X103035714Y-99217676D01*
X103035714Y-99217676D02*
X102940476Y-99312914D01*
X102940476Y-99312914D02*
X102845238Y-99360533D01*
X68757142Y-125514819D02*
X68423809Y-125038628D01*
X68185714Y-125514819D02*
X68185714Y-124514819D01*
X68185714Y-124514819D02*
X68566666Y-124514819D01*
X68566666Y-124514819D02*
X68661904Y-124562438D01*
X68661904Y-124562438D02*
X68709523Y-124610057D01*
X68709523Y-124610057D02*
X68757142Y-124705295D01*
X68757142Y-124705295D02*
X68757142Y-124848152D01*
X68757142Y-124848152D02*
X68709523Y-124943390D01*
X68709523Y-124943390D02*
X68661904Y-124991009D01*
X68661904Y-124991009D02*
X68566666Y-125038628D01*
X68566666Y-125038628D02*
X68185714Y-125038628D01*
X69709523Y-125514819D02*
X69138095Y-125514819D01*
X69423809Y-125514819D02*
X69423809Y-124514819D01*
X69423809Y-124514819D02*
X69328571Y-124657676D01*
X69328571Y-124657676D02*
X69233333Y-124752914D01*
X69233333Y-124752914D02*
X69138095Y-124800533D01*
X70614285Y-124514819D02*
X70138095Y-124514819D01*
X70138095Y-124514819D02*
X70090476Y-124991009D01*
X70090476Y-124991009D02*
X70138095Y-124943390D01*
X70138095Y-124943390D02*
X70233333Y-124895771D01*
X70233333Y-124895771D02*
X70471428Y-124895771D01*
X70471428Y-124895771D02*
X70566666Y-124943390D01*
X70566666Y-124943390D02*
X70614285Y-124991009D01*
X70614285Y-124991009D02*
X70661904Y-125086247D01*
X70661904Y-125086247D02*
X70661904Y-125324342D01*
X70661904Y-125324342D02*
X70614285Y-125419580D01*
X70614285Y-125419580D02*
X70566666Y-125467200D01*
X70566666Y-125467200D02*
X70471428Y-125514819D01*
X70471428Y-125514819D02*
X70233333Y-125514819D01*
X70233333Y-125514819D02*
X70138095Y-125467200D01*
X70138095Y-125467200D02*
X70090476Y-125419580D01*
X68757142Y-123004819D02*
X68423809Y-122528628D01*
X68185714Y-123004819D02*
X68185714Y-122004819D01*
X68185714Y-122004819D02*
X68566666Y-122004819D01*
X68566666Y-122004819D02*
X68661904Y-122052438D01*
X68661904Y-122052438D02*
X68709523Y-122100057D01*
X68709523Y-122100057D02*
X68757142Y-122195295D01*
X68757142Y-122195295D02*
X68757142Y-122338152D01*
X68757142Y-122338152D02*
X68709523Y-122433390D01*
X68709523Y-122433390D02*
X68661904Y-122481009D01*
X68661904Y-122481009D02*
X68566666Y-122528628D01*
X68566666Y-122528628D02*
X68185714Y-122528628D01*
X69709523Y-123004819D02*
X69138095Y-123004819D01*
X69423809Y-123004819D02*
X69423809Y-122004819D01*
X69423809Y-122004819D02*
X69328571Y-122147676D01*
X69328571Y-122147676D02*
X69233333Y-122242914D01*
X69233333Y-122242914D02*
X69138095Y-122290533D01*
X70566666Y-122338152D02*
X70566666Y-123004819D01*
X70328571Y-121957200D02*
X70090476Y-122671485D01*
X70090476Y-122671485D02*
X70709523Y-122671485D01*
X70438095Y-145484819D02*
X70438095Y-146294342D01*
X70438095Y-146294342D02*
X70485714Y-146389580D01*
X70485714Y-146389580D02*
X70533333Y-146437200D01*
X70533333Y-146437200D02*
X70628571Y-146484819D01*
X70628571Y-146484819D02*
X70819047Y-146484819D01*
X70819047Y-146484819D02*
X70914285Y-146437200D01*
X70914285Y-146437200D02*
X70961904Y-146389580D01*
X70961904Y-146389580D02*
X71009523Y-146294342D01*
X71009523Y-146294342D02*
X71009523Y-145484819D01*
X71533333Y-146484819D02*
X71723809Y-146484819D01*
X71723809Y-146484819D02*
X71819047Y-146437200D01*
X71819047Y-146437200D02*
X71866666Y-146389580D01*
X71866666Y-146389580D02*
X71961904Y-146246723D01*
X71961904Y-146246723D02*
X72009523Y-146056247D01*
X72009523Y-146056247D02*
X72009523Y-145675295D01*
X72009523Y-145675295D02*
X71961904Y-145580057D01*
X71961904Y-145580057D02*
X71914285Y-145532438D01*
X71914285Y-145532438D02*
X71819047Y-145484819D01*
X71819047Y-145484819D02*
X71628571Y-145484819D01*
X71628571Y-145484819D02*
X71533333Y-145532438D01*
X71533333Y-145532438D02*
X71485714Y-145580057D01*
X71485714Y-145580057D02*
X71438095Y-145675295D01*
X71438095Y-145675295D02*
X71438095Y-145913390D01*
X71438095Y-145913390D02*
X71485714Y-146008628D01*
X71485714Y-146008628D02*
X71533333Y-146056247D01*
X71533333Y-146056247D02*
X71628571Y-146103866D01*
X71628571Y-146103866D02*
X71819047Y-146103866D01*
X71819047Y-146103866D02*
X71914285Y-146056247D01*
X71914285Y-146056247D02*
X71961904Y-146008628D01*
X71961904Y-146008628D02*
X72009523Y-145913390D01*
X110416666Y-139004819D02*
X110416666Y-139719104D01*
X110416666Y-139719104D02*
X110369047Y-139861961D01*
X110369047Y-139861961D02*
X110273809Y-139957200D01*
X110273809Y-139957200D02*
X110130952Y-140004819D01*
X110130952Y-140004819D02*
X110035714Y-140004819D01*
X110797619Y-139004819D02*
X111416666Y-139004819D01*
X111416666Y-139004819D02*
X111083333Y-139385771D01*
X111083333Y-139385771D02*
X111226190Y-139385771D01*
X111226190Y-139385771D02*
X111321428Y-139433390D01*
X111321428Y-139433390D02*
X111369047Y-139481009D01*
X111369047Y-139481009D02*
X111416666Y-139576247D01*
X111416666Y-139576247D02*
X111416666Y-139814342D01*
X111416666Y-139814342D02*
X111369047Y-139909580D01*
X111369047Y-139909580D02*
X111321428Y-139957200D01*
X111321428Y-139957200D02*
X111226190Y-140004819D01*
X111226190Y-140004819D02*
X110940476Y-140004819D01*
X110940476Y-140004819D02*
X110845238Y-139957200D01*
X110845238Y-139957200D02*
X110797619Y-139909580D01*
X64629523Y-120494819D02*
X64296190Y-120018628D01*
X64058095Y-120494819D02*
X64058095Y-119494819D01*
X64058095Y-119494819D02*
X64439047Y-119494819D01*
X64439047Y-119494819D02*
X64534285Y-119542438D01*
X64534285Y-119542438D02*
X64581904Y-119590057D01*
X64581904Y-119590057D02*
X64629523Y-119685295D01*
X64629523Y-119685295D02*
X64629523Y-119828152D01*
X64629523Y-119828152D02*
X64581904Y-119923390D01*
X64581904Y-119923390D02*
X64534285Y-119971009D01*
X64534285Y-119971009D02*
X64439047Y-120018628D01*
X64439047Y-120018628D02*
X64058095Y-120018628D01*
X65058095Y-120494819D02*
X65058095Y-119494819D01*
X65058095Y-119494819D02*
X65629523Y-120494819D01*
X65629523Y-120494819D02*
X65629523Y-119494819D01*
X66058095Y-119590057D02*
X66105714Y-119542438D01*
X66105714Y-119542438D02*
X66200952Y-119494819D01*
X66200952Y-119494819D02*
X66439047Y-119494819D01*
X66439047Y-119494819D02*
X66534285Y-119542438D01*
X66534285Y-119542438D02*
X66581904Y-119590057D01*
X66581904Y-119590057D02*
X66629523Y-119685295D01*
X66629523Y-119685295D02*
X66629523Y-119780533D01*
X66629523Y-119780533D02*
X66581904Y-119923390D01*
X66581904Y-119923390D02*
X66010476Y-120494819D01*
X66010476Y-120494819D02*
X66629523Y-120494819D01*
%TO.C,C22*%
D11*
X63644420Y-143715000D02*
X63925580Y-143715000D01*
X63644420Y-144735000D02*
X63925580Y-144735000D01*
%TO.C,J2*%
X73140000Y-103640000D02*
X73415000Y-103640000D01*
X73140000Y-103915000D02*
X73140000Y-103640000D01*
X73140000Y-110860000D02*
X73140000Y-110585000D01*
X73415000Y-110860000D02*
X73140000Y-110860000D01*
X80085000Y-103640000D02*
X80360000Y-103640000D01*
X80360000Y-103640000D02*
X80360000Y-103915000D01*
X80360000Y-110585000D02*
X80360000Y-110860000D01*
X80360000Y-110860000D02*
X80085000Y-110860000D01*
X72500000Y-103910000D02*
X72160000Y-103440000D01*
X72840000Y-103440000D01*
X72500000Y-103910000D01*
G36*
X72500000Y-103910000D02*
G01*
X72160000Y-103440000D01*
X72840000Y-103440000D01*
X72500000Y-103910000D01*
G37*
%TO.C,Y1*%
X73540000Y-117440000D02*
X73540000Y-120860000D01*
X73540000Y-120860000D02*
X77660000Y-120860000D01*
%TO.C,U4*%
X56250000Y-65550000D02*
X56250000Y-70550000D01*
X56630000Y-58540000D02*
X124070000Y-58540000D01*
X56630000Y-98880000D02*
X56630000Y-58540000D01*
X64250000Y-60550000D02*
X116250000Y-60550000D01*
X64250000Y-96550000D02*
X64250000Y-60550000D01*
X116250000Y-60550000D02*
X116250000Y-96550000D01*
X116250000Y-96550000D02*
X64250000Y-96550000D01*
X124070000Y-58540000D02*
X124070000Y-98880000D01*
X124070000Y-98880000D02*
X56630000Y-98880000D01*
%TO.C,U8*%
X70050000Y-138540000D02*
X73810000Y-138540000D01*
X70050000Y-145360000D02*
X73810000Y-145360000D01*
X73810000Y-138540000D02*
X73810000Y-139800000D01*
X73810000Y-145360000D02*
X73810000Y-144100000D01*
X68770000Y-138640000D02*
X68530000Y-138310000D01*
X69010000Y-138310000D01*
X68770000Y-138640000D01*
G36*
X68770000Y-138640000D02*
G01*
X68530000Y-138310000D01*
X69010000Y-138310000D01*
X68770000Y-138640000D01*
G37*
%TO.C,C21*%
X63644420Y-141205000D02*
X63925580Y-141205000D01*
X63644420Y-142225000D02*
X63925580Y-142225000D01*
%TO.C,R11*%
X63547742Y-146212500D02*
X64022258Y-146212500D01*
X63547742Y-147257500D02*
X64022258Y-147257500D01*
%TO.C,D3*%
X75985000Y-146630000D02*
X75985000Y-148100000D01*
X75985000Y-148100000D02*
X78270000Y-148100000D01*
X78270000Y-146630000D02*
X75985000Y-146630000D01*
%TO.C,R3*%
X69162742Y-120947500D02*
X69637258Y-120947500D01*
X69162742Y-121992500D02*
X69637258Y-121992500D01*
%TO.C,C9*%
X95034420Y-135800000D02*
X95315580Y-135800000D01*
X95034420Y-136820000D02*
X95315580Y-136820000D01*
%TO.C,U5*%
X107940000Y-110115000D02*
X112560000Y-110115000D01*
X112560000Y-116885000D02*
X107940000Y-116885000D01*
X106390000Y-110570000D02*
X106060000Y-110810000D01*
X106060000Y-110330000D01*
X106390000Y-110570000D01*
G36*
X106390000Y-110570000D02*
G01*
X106060000Y-110810000D01*
X106060000Y-110330000D01*
X106390000Y-110570000D01*
G37*
%TO.C,SW4*%
X95080000Y-112104000D02*
X96230000Y-110935000D01*
X95080000Y-112785000D02*
X95080000Y-112104000D01*
X95080000Y-115385000D02*
X95080000Y-116085000D01*
X95080000Y-116085000D02*
X96230000Y-117235000D01*
X96230000Y-110935000D02*
X100230000Y-110935000D01*
X96230000Y-117235000D02*
X100230000Y-117235000D01*
X100230000Y-110935000D02*
X101380000Y-112085000D01*
X100230000Y-117235000D02*
X101380000Y-116085000D01*
X101380000Y-112085000D02*
X101380000Y-112785000D01*
X101380000Y-116085000D02*
X101380000Y-115385000D01*
%TO.C,R6*%
X94937742Y-138297500D02*
X95412258Y-138297500D01*
X94937742Y-139342500D02*
X95412258Y-139342500D01*
%TO.C,J6*%
X87300000Y-157600000D02*
X87300000Y-159600000D01*
X87300000Y-161500000D02*
X87300000Y-163400000D01*
X87300000Y-163400000D02*
X96700000Y-163400000D01*
X96700000Y-157600000D02*
X96700000Y-159600000D01*
X96700000Y-161500000D02*
X96700000Y-163400000D01*
%TO.C,C20*%
X63644420Y-138695000D02*
X63925580Y-138695000D01*
X63644420Y-139715000D02*
X63925580Y-139715000D01*
%TO.C,SW3*%
X95080000Y-129184000D02*
X96230000Y-128015000D01*
X95080000Y-129865000D02*
X95080000Y-129184000D01*
X95080000Y-132465000D02*
X95080000Y-133165000D01*
X95080000Y-133165000D02*
X96230000Y-134315000D01*
X96230000Y-128015000D02*
X100230000Y-128015000D01*
X96230000Y-134315000D02*
X100230000Y-134315000D01*
X100230000Y-128015000D02*
X101380000Y-129165000D01*
X100230000Y-134315000D02*
X101380000Y-133165000D01*
X101380000Y-129165000D02*
X101380000Y-129865000D01*
X101380000Y-133165000D02*
X101380000Y-132465000D01*
%TO.C,U6*%
X92700000Y-99950000D02*
X93175000Y-99950000D01*
X92700000Y-100425000D02*
X92700000Y-99950000D01*
X92700000Y-103170000D02*
X92700000Y-102695000D01*
X93175000Y-103170000D02*
X92700000Y-103170000D01*
X95445000Y-99950000D02*
X95920000Y-99950000D01*
X95920000Y-99950000D02*
X95920000Y-100425000D01*
X95920000Y-102695000D02*
X95920000Y-103170000D01*
X95920000Y-103170000D02*
X95445000Y-103170000D01*
X92190000Y-100810000D02*
X91860000Y-101050000D01*
X91860000Y-100570000D01*
X92190000Y-100810000D01*
G36*
X92190000Y-100810000D02*
G01*
X91860000Y-101050000D01*
X91860000Y-100570000D01*
X92190000Y-100810000D01*
G37*
%TO.C,J5*%
X66350000Y-158780000D02*
X72350000Y-158780000D01*
X66350000Y-159640000D02*
X66350000Y-158780000D01*
X72350000Y-159640000D02*
X66350000Y-159640000D01*
X75110000Y-160480000D02*
X72350000Y-160480000D01*
X75340000Y-161320000D02*
X75110000Y-161320000D01*
X75340000Y-162180000D02*
X75110000Y-162180000D01*
X75422642Y-158780000D02*
X75110000Y-158780000D01*
X75422642Y-159640000D02*
X75110000Y-159640000D01*
X77770000Y-161750000D02*
X77770000Y-163020000D01*
X77770000Y-163020000D02*
X76500000Y-163020000D01*
X66350000Y-161320000D02*
X72350000Y-161320000D01*
X72350000Y-162180000D01*
X66350000Y-162180000D01*
X66350000Y-161320000D01*
G36*
X66350000Y-161320000D02*
G01*
X72350000Y-161320000D01*
X72350000Y-162180000D01*
X66350000Y-162180000D01*
X66350000Y-161320000D01*
G37*
X72350000Y-157830000D02*
X75110000Y-157830000D01*
X75110000Y-163130000D01*
X72350000Y-163130000D01*
X72350000Y-157830000D01*
%TO.C,U7*%
X79203800Y-123970000D02*
X86923800Y-123970000D01*
X79203800Y-124225000D02*
X79203800Y-123970000D01*
X79203800Y-134490000D02*
X79203800Y-134235000D01*
X86923800Y-123970000D02*
X86923800Y-124225000D01*
X86923800Y-134235000D02*
X86923800Y-134490000D01*
X86923800Y-134490000D02*
X79203800Y-134490000D01*
X78413800Y-124220000D02*
X78073800Y-123750000D01*
X78753800Y-123750000D01*
X78413800Y-124220000D01*
G36*
X78413800Y-124220000D02*
G01*
X78073800Y-123750000D01*
X78753800Y-123750000D01*
X78413800Y-124220000D01*
G37*
%TO.C,R12*%
X63547742Y-148722500D02*
X64022258Y-148722500D01*
X63547742Y-149767500D02*
X64022258Y-149767500D01*
%TO.C,D4*%
X75985000Y-149220000D02*
X75985000Y-150690000D01*
X75985000Y-150690000D02*
X78270000Y-150690000D01*
X78270000Y-149220000D02*
X75985000Y-149220000D01*
%TO.C,R13*%
X63547742Y-151232500D02*
X64022258Y-151232500D01*
X63547742Y-152277500D02*
X64022258Y-152277500D01*
%TO.C,LS1*%
X100870000Y-100620000D02*
X102250000Y-100620000D01*
X100870000Y-102000000D02*
X100870000Y-100620000D01*
X100870000Y-103270000D02*
X100870000Y-105920000D01*
X100870000Y-103270000D02*
X103630000Y-103270000D01*
X100870000Y-105920000D02*
X103630000Y-105920000D01*
X103630000Y-103270000D02*
X103630000Y-105920000D01*
%TO.C,R15*%
X69162742Y-125967500D02*
X69637258Y-125967500D01*
X69162742Y-127012500D02*
X69637258Y-127012500D01*
%TO.C,R14*%
X69162742Y-123457500D02*
X69637258Y-123457500D01*
X69162742Y-124502500D02*
X69637258Y-124502500D01*
%TO.C,U9*%
X69140000Y-146870000D02*
X73260000Y-146870000D01*
X69140000Y-146965000D02*
X69140000Y-146870000D01*
X69140000Y-151990000D02*
X69140000Y-151895000D01*
X73260000Y-146870000D02*
X73260000Y-146965000D01*
X73260000Y-151895000D02*
X73260000Y-151990000D01*
X73260000Y-151990000D02*
X69140000Y-151990000D01*
X68600000Y-146960000D02*
X68360000Y-146630000D01*
X68840000Y-146630000D01*
X68600000Y-146960000D01*
G36*
X68600000Y-146960000D02*
G01*
X68360000Y-146630000D01*
X68840000Y-146630000D01*
X68600000Y-146960000D01*
G37*
%TO.C,J3*%
X107650000Y-143350000D02*
X108150000Y-143350000D01*
X107650000Y-144550000D02*
X105650000Y-144550000D01*
X107650000Y-144550000D02*
X107650000Y-143350000D01*
X107650000Y-147150000D02*
X105650000Y-147150000D01*
X107650000Y-153650000D02*
X107650000Y-147150000D01*
X107650000Y-158050000D02*
X107650000Y-156850000D01*
X108150000Y-140850000D02*
X113350000Y-140850000D01*
X108150000Y-143350000D02*
X108150000Y-140850000D01*
X109900000Y-158050000D02*
X107650000Y-158050000D01*
X113350000Y-140850000D02*
X113350000Y-143350000D01*
X113350000Y-143350000D02*
X113850000Y-143350000D01*
X113850000Y-143350000D02*
X113850000Y-146550000D01*
X113850000Y-149150000D02*
X113850000Y-158050000D01*
X113850000Y-158050000D02*
X113100000Y-158050000D01*
%TO.C,RN2*%
X65820000Y-120820000D02*
X64820000Y-120820000D01*
X65820000Y-122760000D02*
X64820000Y-122760000D01*
%TD*%
M02*
