%TF.GenerationSoftware,KiCad,Pcbnew,10.0.1*%
%TF.CreationDate,2026-05-13T21:49:05+05:30*%
%TF.ProjectId,kiki-player,6b696b69-2d70-46c6-9179-65722e6b6963,rev?*%
%TF.SameCoordinates,Original*%
%TF.FileFunction,Soldermask,Top*%
%TF.FilePolarity,Negative*%
%FSLAX46Y46*%
G04 Gerber Fmt 4.6, Leading zero omitted, Abs format (unit mm)*
G04 Created by KiCad (PCBNEW 10.0.1) date 2026-05-13 21:49:05*
%MOMM*%
%LPD*%
G01*
G04 APERTURE LIST*
G04 Aperture macros list*
%AMRoundRect*
0 Rectangle with rounded corners*
0 $1 Rounding radius*
0 $2 $3 $4 $5 $6 $7 $8 $9 X,Y pos of 4 corners*
0 Add a 4 corners polygon primitive as box body*
4,1,4,$2,$3,$4,$5,$6,$7,$8,$9,$2,$3,0*
0 Add four circle primitives for the rounded corners*
1,1,$1+$1,$2,$3*
1,1,$1+$1,$4,$5*
1,1,$1+$1,$6,$7*
1,1,$1+$1,$8,$9*
0 Add four rect primitives between the rounded corners*
20,1,$1+$1,$2,$3,$4,$5,0*
20,1,$1+$1,$4,$5,$6,$7,0*
20,1,$1+$1,$6,$7,$8,$9,0*
20,1,$1+$1,$8,$9,$2,$3,0*%
G04 Aperture macros list end*
%ADD10RoundRect,0.225000X-0.225000X-0.250000X0.225000X-0.250000X0.225000X0.250000X-0.225000X0.250000X0*%
%ADD11RoundRect,0.137500X-0.600000X-0.137500X0.600000X-0.137500X0.600000X0.137500X-0.600000X0.137500X0*%
%ADD12RoundRect,0.137500X-0.137500X-0.600000X0.137500X-0.600000X0.137500X0.600000X-0.137500X0.600000X0*%
%ADD13RoundRect,0.250000X-0.450000X-0.350000X0.450000X-0.350000X0.450000X0.350000X-0.450000X0.350000X0*%
%ADD14C,4.000000*%
%ADD15R,1.500000X1.500000*%
%ADD16C,1.500000*%
%ADD17RoundRect,0.375000X-0.625000X-0.375000X0.625000X-0.375000X0.625000X0.375000X-0.625000X0.375000X0*%
%ADD18RoundRect,0.500000X-0.500000X-1.400000X0.500000X-1.400000X0.500000X1.400000X-0.500000X1.400000X0*%
%ADD19RoundRect,0.200000X-0.200000X-0.275000X0.200000X-0.275000X0.200000X0.275000X-0.200000X0.275000X0*%
%ADD20RoundRect,0.218750X-0.218750X-0.256250X0.218750X-0.256250X0.218750X0.256250X-0.218750X0.256250X0*%
%ADD21RoundRect,0.100000X-0.637500X-0.100000X0.637500X-0.100000X0.637500X0.100000X-0.637500X0.100000X0*%
%ADD22RoundRect,0.500000X-0.500000X-0.500000X0.500000X-0.500000X0.500000X0.500000X-0.500000X0.500000X0*%
%ADD23C,0.650000*%
%ADD24RoundRect,0.150000X-0.150000X-0.575000X0.150000X-0.575000X0.150000X0.575000X-0.150000X0.575000X0*%
%ADD25RoundRect,0.075000X-0.075000X-0.650000X0.075000X-0.650000X0.075000X0.650000X-0.075000X0.650000X0*%
%ADD26O,1.000000X2.100000*%
%ADD27O,1.000000X1.600000*%
%ADD28RoundRect,0.062500X-0.350000X-0.062500X0.350000X-0.062500X0.350000X0.062500X-0.350000X0.062500X0*%
%ADD29RoundRect,0.062500X-0.062500X-0.350000X0.062500X-0.350000X0.062500X0.350000X-0.062500X0.350000X0*%
%ADD30R,1.230000X1.230000*%
%ADD31R,1.700000X1.700000*%
%ADD32C,1.700000*%
%ADD33RoundRect,0.150000X-0.875000X-0.150000X0.875000X-0.150000X0.875000X0.150000X-0.875000X0.150000X0*%
%ADD34RoundRect,0.150000X-0.825000X-0.150000X0.825000X-0.150000X0.825000X0.150000X-0.825000X0.150000X0*%
%ADD35R,2.410000X3.300000*%
%ADD36R,2.800000X2.200000*%
%ADD37R,2.800000X2.800000*%
%ADD38R,2.800000X2.600000*%
%ADD39R,0.800000X0.500000*%
G04 APERTURE END LIST*
D10*
%TO.C,C22*%
X63010000Y-144225000D03*
X64560000Y-144225000D03*
%TD*%
D11*
%TO.C,J2*%
X72587500Y-104450000D03*
X72587500Y-105250000D03*
X72587500Y-106050000D03*
X72587500Y-106850000D03*
X72587500Y-107650000D03*
X72587500Y-108450000D03*
X72587500Y-109250000D03*
X72587500Y-110050000D03*
D12*
X73950000Y-111412500D03*
X74750000Y-111412500D03*
X75550000Y-111412500D03*
X76350000Y-111412500D03*
X77150000Y-111412500D03*
X77950000Y-111412500D03*
X78750000Y-111412500D03*
X79550000Y-111412500D03*
D11*
X80912500Y-110050000D03*
X80912500Y-109250000D03*
X80912500Y-108450000D03*
X80912500Y-107650000D03*
X80912500Y-106850000D03*
X80912500Y-106050000D03*
X80912500Y-105250000D03*
X80912500Y-104450000D03*
D12*
X79550000Y-103087500D03*
X78750000Y-103087500D03*
X77950000Y-103087500D03*
X77150000Y-103087500D03*
X76350000Y-103087500D03*
X75550000Y-103087500D03*
X74750000Y-103087500D03*
X73950000Y-103087500D03*
%TD*%
D13*
%TO.C,Y1*%
X74500000Y-120000000D03*
X76700000Y-120000000D03*
X76700000Y-118300000D03*
X74500000Y-118300000D03*
%TD*%
D14*
%TO.C,U4*%
X59750000Y-61660000D03*
X59750000Y-95760000D03*
X120950000Y-61660000D03*
X120950000Y-95760000D03*
D15*
X58250000Y-68550000D03*
D16*
X58250000Y-71090000D03*
X58250000Y-73630000D03*
X58250000Y-76170000D03*
X58250000Y-78710000D03*
X58250000Y-81250000D03*
X58250000Y-83790000D03*
X58250000Y-86330000D03*
X58250000Y-88870000D03*
X121770000Y-73630000D03*
X121770000Y-76170000D03*
X121770000Y-78710000D03*
X121770000Y-81250000D03*
X121770000Y-83790000D03*
%TD*%
D17*
%TO.C,U8*%
X68750000Y-139650000D03*
X68750000Y-141950000D03*
D18*
X75050000Y-141950000D03*
D17*
X68750000Y-144250000D03*
%TD*%
D10*
%TO.C,C21*%
X63010000Y-141715000D03*
X64560000Y-141715000D03*
%TD*%
D19*
%TO.C,R11*%
X62960000Y-146735000D03*
X64610000Y-146735000D03*
%TD*%
D20*
%TO.C,D3*%
X76682500Y-147365000D03*
X78257500Y-147365000D03*
%TD*%
D19*
%TO.C,R3*%
X68575000Y-121470000D03*
X70225000Y-121470000D03*
%TD*%
D10*
%TO.C,C9*%
X94400000Y-136310000D03*
X95950000Y-136310000D03*
%TD*%
D21*
%TO.C,U5*%
X107387500Y-110575000D03*
X107387500Y-111225000D03*
X107387500Y-111875000D03*
X107387500Y-112525000D03*
X107387500Y-113175000D03*
X107387500Y-113825000D03*
X107387500Y-114475000D03*
X107387500Y-115125000D03*
X107387500Y-115775000D03*
X107387500Y-116425000D03*
X113112500Y-116425000D03*
X113112500Y-115775000D03*
X113112500Y-115125000D03*
X113112500Y-114475000D03*
X113112500Y-113825000D03*
X113112500Y-113175000D03*
X113112500Y-112525000D03*
X113112500Y-111875000D03*
X113112500Y-111225000D03*
X113112500Y-110575000D03*
%TD*%
D22*
%TO.C,SW4*%
X95230000Y-114085000D03*
X101230000Y-114085000D03*
%TD*%
D19*
%TO.C,R6*%
X94350000Y-138820000D03*
X96000000Y-138820000D03*
%TD*%
D23*
%TO.C,J6*%
X89110000Y-156900000D03*
X94890000Y-156900000D03*
D24*
X88750000Y-155455000D03*
X89550000Y-155455000D03*
D25*
X90750000Y-155455000D03*
X91750000Y-155455000D03*
X92250000Y-155455000D03*
X93250000Y-155455000D03*
D24*
X94450000Y-155455000D03*
X95250000Y-155455000D03*
X95250000Y-155455000D03*
X94450000Y-155455000D03*
D25*
X93750000Y-155455000D03*
X92750000Y-155455000D03*
X91250000Y-155455000D03*
X90250000Y-155455000D03*
D24*
X89550000Y-155455000D03*
X88750000Y-155455000D03*
D26*
X87680000Y-156370000D03*
D27*
X87680000Y-160550000D03*
D26*
X96320000Y-156370000D03*
D27*
X96320000Y-160550000D03*
%TD*%
D10*
%TO.C,C20*%
X63010000Y-139205000D03*
X64560000Y-139205000D03*
%TD*%
D22*
%TO.C,SW3*%
X95230000Y-131165000D03*
X101230000Y-131165000D03*
%TD*%
D28*
%TO.C,U6*%
X92872500Y-100810000D03*
X92872500Y-101310000D03*
X92872500Y-101810000D03*
X92872500Y-102310000D03*
D29*
X93560000Y-102997500D03*
X94060000Y-102997500D03*
X94560000Y-102997500D03*
X95060000Y-102997500D03*
D28*
X95747500Y-102310000D03*
X95747500Y-101810000D03*
X95747500Y-101310000D03*
X95747500Y-100810000D03*
D29*
X95060000Y-100122500D03*
X94560000Y-100122500D03*
X94060000Y-100122500D03*
X93560000Y-100122500D03*
D30*
X94310000Y-101560000D03*
%TD*%
D31*
%TO.C,J5*%
X76500000Y-161750000D03*
D32*
X76500000Y-159210000D03*
%TD*%
D33*
%TO.C,U7*%
X78413800Y-124785000D03*
X78413800Y-126055000D03*
X78413800Y-127325000D03*
X78413800Y-128595000D03*
X78413800Y-129865000D03*
X78413800Y-131135000D03*
X78413800Y-132405000D03*
X78413800Y-133675000D03*
X87713800Y-133675000D03*
X87713800Y-132405000D03*
X87713800Y-131135000D03*
X87713800Y-129865000D03*
X87713800Y-128595000D03*
X87713800Y-127325000D03*
X87713800Y-126055000D03*
X87713800Y-124785000D03*
%TD*%
D19*
%TO.C,R12*%
X62960000Y-149245000D03*
X64610000Y-149245000D03*
%TD*%
D20*
%TO.C,D4*%
X76682500Y-149955000D03*
X78257500Y-149955000D03*
%TD*%
D19*
%TO.C,R13*%
X62960000Y-151755000D03*
X64610000Y-151755000D03*
%TD*%
D31*
%TO.C,LS1*%
X102250000Y-102000000D03*
D32*
X102250000Y-104540000D03*
%TD*%
D19*
%TO.C,R15*%
X68575000Y-126490000D03*
X70225000Y-126490000D03*
%TD*%
%TO.C,R14*%
X68575000Y-123980000D03*
X70225000Y-123980000D03*
%TD*%
D34*
%TO.C,U9*%
X68725000Y-147525000D03*
X68725000Y-148795000D03*
X68725000Y-150065000D03*
X68725000Y-151335000D03*
X73675000Y-151335000D03*
X73675000Y-150065000D03*
X73675000Y-148795000D03*
X73675000Y-147525000D03*
D35*
X71200000Y-149430000D03*
%TD*%
D32*
%TO.C,J3*%
X110750000Y-146950000D03*
X110750000Y-153950000D03*
D36*
X114450000Y-147850000D03*
X107050000Y-145850000D03*
D37*
X107050000Y-155250000D03*
D38*
X111500000Y-159250000D03*
%TD*%
D39*
%TO.C,RN2*%
X64420000Y-121290000D03*
X64420000Y-122290000D03*
X66220000Y-122290000D03*
X66220000Y-121290000D03*
%TD*%
M02*
