M48
; DRILL file KiCad 10.0.1 date 2026-05-13T21:49:13
; FORMAT={-:-/ absolute / metric / decimal}
; #@! TF.CreationDate,2026-05-13T21:49:13+05:30
; #@! TF.GenerationSoftware,Kicad,Pcbnew,10.0.1
; #@! TF.FileFunction,Plated,1,2,PTH
FMAT,2
METRIC
; #@! TA.AperFunction,Plated,PTH,ComponentDrill
T1C0.200
; #@! TA.AperFunction,Plated,PTH,ViaDrill
T2C0.300
; #@! TA.AperFunction,Plated,PTH,ComponentDrill
T3C0.600
; #@! TA.AperFunction,Plated,PTH,ComponentDrill
T4C1.000
; #@! TA.AperFunction,Plated,PTH,ComponentDrill
T5C2.700
%
G90
G05
T1
X70.5Y-148.23
X70.5Y-149.43
X70.5Y-150.63
X71.9Y-148.23
X71.9Y-149.43
X71.9Y-150.63
X88.35Y-64.66
X88.35Y-66.06
X89.05Y-63.96
X89.05Y-65.36
X89.05Y-66.76
X89.75Y-64.66
X89.75Y-66.06
X90.45Y-63.96
X90.45Y-65.36
X90.45Y-66.76
X91.15Y-64.66
X91.15Y-66.06
T2
X57.616Y-77.007
X60.0Y-79.4
X60.75Y-77.25
X62.5Y-71.75
X63.5Y-78.0
X63.61Y-120.152
X64.01Y-116.0
X66.11Y-120.54
X66.721Y-115.471
X67.25Y-114.0
X67.25Y-121.75
X67.5Y-145.75
X67.628Y-120.255
X68.75Y-150.865
X69.0Y-127.75
X69.175Y-112.168
X71.25Y-105.5
X71.25Y-106.75
X71.75Y-146.75
X72.5Y-72.75
X72.774Y-106.075
X73.75Y-152.25
X74.251Y-101.87
X74.75Y-107.75
X75.25Y-126.61
X76.0Y-72.5
X76.0Y-80.75
X76.25Y-121.0
X76.5Y-160.7
X77.75Y-71.75
X78.264Y-64.693
X79.75Y-125.41
X80.25Y-117.6
X80.75Y-60.0
X81.25Y-73.25
X81.25Y-88.87
X81.549Y-120.799
X82.0Y-59.5
X82.75Y-119.75
X84.0Y-90.25
X86.25Y-76.75
X88.0Y-77.0
X88.25Y-96.5
X88.65Y-97.75
X88.65Y-114.5
X90.35Y-77.174
X90.394Y-100.536
X90.5Y-97.75
X90.5Y-114.5
X90.75Y-78.0
X90.75Y-146.75
X91.5Y-74.0
X91.826Y-78.576
X91.894Y-101.41
X92.169Y-76.9
X92.75Y-78.5
X92.75Y-96.65
X92.919Y-102.435
X92.969Y-76.9
X93.0Y-74.0
X93.0Y-136.25
X93.268Y-98.982
X93.75Y-89.5
X94.5Y-98.5
X94.617Y-104.133
X95.25Y-64.0
X95.25Y-76.75
X96.582Y-101.21
X98.25Y-76.75
X98.25Y-78.1
X101.5Y-117.75
X105.5Y-113.5
X106.0Y-111.25
X106.149Y-114.425
X106.49Y-112.518
X108.75Y-115.25
X111.75Y-113.75
X112.75Y-117.75
X114.178Y-81.428
X114.45Y-134.05
X118.75Y-76.75
X120.799Y-76.504
X120.8Y-127.602
X122.775Y-122.125
X122.818Y-78.767
X123.0Y-81.25
X123.775Y-124.125
T4
X58.25Y-68.55
X58.25Y-71.09
X58.25Y-73.63
X58.25Y-76.17
X58.25Y-78.71
X58.25Y-81.25
X58.25Y-83.79
X58.25Y-86.33
X58.25Y-88.87
X76.5Y-159.21
X76.5Y-161.75
X102.25Y-102.0
X102.25Y-104.54
X121.77Y-73.63
X121.77Y-76.17
X121.77Y-78.71
X121.77Y-81.25
X121.77Y-83.79
T5
X59.75Y-61.66
X59.75Y-95.76
X120.95Y-61.66
X120.95Y-95.76
T3
G00X87.68Y-155.82
M15
G01X87.68Y-156.92
M16
G05
G00X87.68Y-160.25
M15
G01X87.68Y-160.85
M16
G05
G00X96.32Y-155.82
M15
G01X96.32Y-156.92
M16
G05
G00X96.32Y-160.25
M15
G01X96.32Y-160.85
M16
G05
M30
